<svg width="14" height="14" viewBox="0 0 14 14" fill="none" xmlns="http://www.w3.org/2000/svg">
<path d="M1.75 1.7998H12.25C12.608 1.7998 12.9519 1.94214 13.2051 2.19531C13.4581 2.44847 13.5996 2.79244 13.5996 3.15039V12.25C13.5996 12.608 13.4583 12.9519 13.2051 13.2051C12.9519 13.4583 12.608 13.5996 12.25 13.5996H1.75C1.39214 13.5991 1.04896 13.4572 0.795898 13.2041C0.542841 12.951 0.400946 12.6079 0.400391 12.25V3.15039L0.407227 3.0166C0.438323 2.70786 0.574607 2.41767 0.795898 2.19629C1.04896 1.94323 1.39214 1.80036 1.75 1.7998Z" stroke="#5C5C5C" stroke-width="0.8" stroke-linecap="round"/>
<path d="M0.583984 5.25H13.4173" stroke="#5C5C5C" stroke-width="0.8" stroke-linecap="round"/>
</svg>
